<?xml version="1.0" encoding="iso-8859-1"?>
<!-- Uploaded to: SVG Repo, www.svgrepo.com, Generator: SVG Repo Mixer Tools -->
<svg height="800px" width="800px" version="1.1" id="Layer_1" xmlns="http://www.w3.org/2000/svg" xmlns:xlink="http://www.w3.org/1999/xlink" 
	 viewBox="0 0 512.587 512.587" xml:space="preserve">
<g transform="translate(1 1)">
	<g>
		<path style="fill:#FFE100;" d="M148.627,50.787c-2.56,0-5.12-1.707-6.827-3.413l-17.067-25.6
			c-2.56-4.267-1.707-9.387,1.707-11.947c4.267-2.56,9.387-1.707,11.947,2.56l17.067,25.6c2.56,4.267,1.707,9.387-2.56,11.947
			C152.04,49.933,150.333,50.787,148.627,50.787z"/>
		<path style="fill:#FFE100;" d="M438.76,119.053c-2.56,0-4.267-0.853-5.973-2.56c-3.413-3.413-3.413-8.533,0-11.947l25.6-25.6
			c3.413-3.413,8.533-3.413,11.947,0c3.413,3.413,3.413,8.533,0,11.947l-25.6,25.6C443.027,118.2,441.32,119.053,438.76,119.053z"/>
		<path style="fill:#FFE100;" d="M88.893,119.053c-2.56,0-4.267-0.853-5.973-2.56l-25.6-25.6c-3.413-3.413-3.413-8.533,0-11.947
			s8.533-3.413,11.947,0l25.6,25.6c3.413,3.413,3.413,8.533,0,11.947C93.16,118.2,91.453,119.053,88.893,119.053z"/>
		<path style="fill:#FFE100;" d="M370.493,50.787c-1.707,0-3.413-0.853-5.12-1.707c-4.267-2.56-5.12-7.68-2.56-11.947l17.067-25.6
			c2.56-4.267,7.68-5.12,11.947-2.56s5.12,7.68,2.56,11.947l-17.067,25.6C375.613,49.08,373.053,50.787,370.493,50.787z"/>
		<path style="fill:#FFE100;" d="M385.853,511.587c-2.56,0-5.12-1.707-6.827-3.413l-12.8-18.773
			c-2.56-4.267-1.707-9.387,2.56-11.947s9.387-1.707,11.947,2.56l12.8,18.773c2.56,4.267,1.707,9.387-2.56,11.947
			C389.267,510.733,387.56,511.587,385.853,511.587z"/>
		<path style="fill:#FFE100;" d="M54.76,451.853c-2.56,0-4.267-0.853-5.973-2.56c-3.413-3.413-3.413-8.533,0-11.947l25.6-25.6
			c3.413-3.413,8.533-3.413,11.947,0c3.413,3.413,3.413,8.533,0,11.947l-25.6,25.6C59.027,451,57.32,451.853,54.76,451.853z"/>
		<path style="fill:#FFE100;" d="M455.827,451.853c-2.56,0-4.267-0.853-5.973-2.56l-25.6-25.6c-3.413-3.413-3.413-8.533,0-11.947
			c3.413-3.413,8.533-3.413,11.947,0l25.6,25.6c3.413,3.413,3.413,8.533,0,11.947C460.093,451,458.387,451.853,455.827,451.853z"/>
		<path style="fill:#FFE100;" d="M137.533,511.587c-1.707,0-3.413-0.853-5.12-1.707c-4.267-2.56-5.12-7.68-2.56-11.947
			l11.093-17.067c2.56-4.267,7.68-5.12,11.947-2.56c4.267,2.56,5.12,7.68,2.56,11.947L144.36,507.32
			C142.653,509.88,140.093,511.587,137.533,511.587z"/>
		<path style="fill:#FFE100;" d="M259.56,50.787c-5.12,0-8.533-3.413-8.533-8.533v-25.6c0-5.12,3.413-8.533,8.533-8.533
			c5.12,0,8.533,3.413,8.533,8.533v25.6C268.093,47.373,264.68,50.787,259.56,50.787z"/>
		<path style="fill:#FFE100;" d="M259.56,511.587c-5.12,0-8.533-3.413-8.533-8.533v-17.067c0-5.12,3.413-8.533,8.533-8.533
			c5.12,0,8.533,3.413,8.533,8.533v17.067C268.093,508.173,264.68,511.587,259.56,511.587z"/>
		<path style="fill:#FFE100;" d="M71.827,221.453h-25.6c-5.12,0-8.533-3.413-8.533-8.533c0-5.12,3.413-8.533,8.533-8.533h25.6
			c5.12,0,8.533,3.413,8.533,8.533C80.36,218.04,76.947,221.453,71.827,221.453z"/>
		<path style="fill:#FFE100;" d="M71.827,332.387h-25.6c-5.12,0-8.533-3.413-8.533-8.533c0-5.12,3.413-8.533,8.533-8.533h25.6
			c5.12,0,8.533,3.413,8.533,8.533C80.36,328.973,76.947,332.387,71.827,332.387z"/>
		<path style="fill:#FFE100;" d="M472.893,221.453h-25.6c-5.12,0-8.533-3.413-8.533-8.533c0-5.12,3.413-8.533,8.533-8.533h25.6
			c5.12,0,8.533,3.413,8.533,8.533C481.427,218.04,478.013,221.453,472.893,221.453z"/>
		<path style="fill:#FFE100;" d="M472.893,332.387h-25.6c-5.12,0-8.533-3.413-8.533-8.533c0-5.12,3.413-8.533,8.533-8.533h25.6
			c5.12,0,8.533,3.413,8.533,8.533C481.427,328.973,478.013,332.387,472.893,332.387z"/>
		<polygon style="fill:#FFE100;" points="344.893,67.853 251.027,67.853 157.16,67.853 105.96,127.587 105.96,383.587 
			157.16,443.32 251.027,443.32 344.893,443.32 396.093,383.587 396.093,127.587 		"/>
		<polygon style="fill:#FFE100;" points="191.293,119.053 157.16,67.853 105.96,127.587 157.16,153.187 		"/>
		<polygon style="fill:#FFE100;" points="310.76,119.053 344.893,67.853 396.093,127.587 344.893,153.187 		"/>
		<polygon style="fill:#FFE100;" points="310.76,392.12 344.893,443.32 396.093,383.587 344.893,357.987 		"/>
		<polygon style="fill:#FFE100;" points="191.293,392.12 157.16,443.32 105.96,383.587 157.16,357.987 		"/>
		<polygon style="fill:#FFE100;" points="310.76,119.053 251.027,119.053 191.293,119.053 157.16,153.187 157.16,357.987 
			191.293,392.12 251.027,392.12 310.76,392.12 344.893,357.987 344.893,153.187 		"/>
	</g>
	<polygon style="fill:#FFA800;" points="344.893,67.853 319.293,67.853 370.493,127.587 370.493,383.587 319.293,443.32 
		344.893,443.32 396.093,383.587 396.093,127.587 	"/>
	<polygon style="fill:#FFFFFF;" points="157.16,67.853 182.76,67.853 131.56,127.587 131.56,383.587 182.76,443.32 157.16,443.32 
		105.96,383.587 105.96,127.587 	"/>
	<path style="fill:#63D3FD;" d="M199.827,281.187c0,28.16,23.04,51.2,51.2,51.2s51.2-23.04,51.2-51.2
		c0-21.333-25.6-34.133-25.6-34.133c-39.253-23.04,0-68.267,0-68.267S199.827,208.653,199.827,281.187"/>
	<path d="M349.16,451.853H152.893L97.427,387V124.173l55.467-64.853h195.413l55.467,64.853v261.973L349.16,451.853z
		 M161.427,434.787H341.48l46.933-54.613V131l-47.787-54.613h-179.2L114.493,131v250.027L161.427,434.787z"/>
	<path d="M314.173,400.653H187.88L148.627,361.4V149.773l39.253-39.253h126.293l39.253,39.253V361.4L314.173,400.653z
		 M194.707,383.587h112.64l29.013-29.013V156.6l-29.013-29.013h-112.64L165.693,156.6v197.973L194.707,383.587z"/>
	<path d="M140.093,42.253c-2.56,0-5.12-1.707-6.827-3.413L116.2,13.24c-2.56-4.267-1.707-9.387,1.707-11.947
		c4.267-2.56,9.387-1.707,11.947,2.56l17.067,25.6c2.56,4.267,1.707,9.387-2.56,11.947C143.507,41.4,141.8,42.253,140.093,42.253z"
		/>
	<path d="M430.227,110.52c-2.56,0-4.267-0.853-5.973-2.56c-3.413-3.413-3.413-8.533,0-11.947l25.6-25.6
		c3.413-3.413,8.533-3.413,11.947,0c3.413,3.413,3.413,8.533,0,11.947l-25.6,25.6C434.493,109.667,432.787,110.52,430.227,110.52z"
		/>
	<path d="M80.36,110.52c-2.56,0-4.267-0.853-5.973-2.56l-25.6-25.6c-3.413-3.413-3.413-8.533,0-11.947
		C52.2,67,57.32,67,60.733,70.413l25.6,25.6c3.413,3.413,3.413,8.533,0,11.947C84.627,109.667,82.92,110.52,80.36,110.52z"/>
	<path d="M361.96,42.253c-1.707,0-3.413-0.853-5.12-1.707c-4.267-2.56-5.12-7.68-2.56-11.947L371.347,3
		c2.56-4.267,7.68-5.12,11.947-2.56s5.12,7.68,2.56,11.947l-17.067,25.6C367.08,40.547,364.52,42.253,361.96,42.253z"/>
	<path d="M379.027,511.587c-2.56,0-5.12-1.707-6.827-3.413l-17.067-25.6c-2.56-4.267-1.707-9.387,2.56-11.947
		s9.387-1.707,11.947,2.56l17.067,25.6c2.56,4.267,1.707,9.387-2.56,11.947C382.44,510.733,380.733,511.587,379.027,511.587z"/>
	<path d="M46.227,443.32c-2.56,0-4.267-0.853-5.973-2.56c-3.413-3.413-3.413-8.533,0-11.947l25.6-25.6
		c3.413-3.413,8.533-3.413,11.947,0s3.413,8.533,0,11.947l-25.6,25.6C50.493,442.467,48.787,443.32,46.227,443.32z"/>
	<path d="M447.293,443.32c-2.56,0-4.267-0.853-5.973-2.56l-25.6-25.6c-3.413-3.413-3.413-8.533,0-11.947
		c3.413-3.413,8.533-3.413,11.947,0l25.6,25.6c3.413,3.413,3.413,8.533,0,11.947C451.56,442.467,449.853,443.32,447.293,443.32z"/>
	<path d="M123.027,511.587c-1.707,0-3.413-0.853-5.12-1.707c-4.267-2.56-5.12-7.68-2.56-11.947l17.067-25.6
		c2.56-4.267,7.68-5.12,11.947-2.56s5.12,7.68,2.56,11.947l-17.067,25.6C128.147,509.88,125.587,511.587,123.027,511.587z"/>
	<path d="M251.027,42.253c-5.12,0-8.533-3.413-8.533-8.533V8.12c0-5.12,3.413-8.533,8.533-8.533c5.12,0,8.533,3.413,8.533,8.533
		v25.6C259.56,38.84,256.147,42.253,251.027,42.253z"/>
	<path d="M251.027,511.587c-5.12,0-8.533-3.413-8.533-8.533v-25.6c0-5.12,3.413-8.533,8.533-8.533c5.12,0,8.533,3.413,8.533,8.533
		v25.6C259.56,508.173,256.147,511.587,251.027,511.587z"/>
	<path d="M63.293,212.92h-25.6c-5.12,0-8.533-3.413-8.533-8.533c0-5.12,3.413-8.533,8.533-8.533h25.6
		c5.12,0,8.533,3.413,8.533,8.533C71.827,209.507,68.413,212.92,63.293,212.92z"/>
	<path d="M63.293,323.853h-25.6c-5.12,0-8.533-3.413-8.533-8.533c0-5.12,3.413-8.533,8.533-8.533h25.6
		c5.12,0,8.533,3.413,8.533,8.533C71.827,320.44,68.413,323.853,63.293,323.853z"/>
	<path d="M464.36,212.92h-25.6c-5.12,0-8.533-3.413-8.533-8.533c0-5.12,3.413-8.533,8.533-8.533h25.6
		c5.12,0,8.533,3.413,8.533,8.533C472.893,209.507,469.48,212.92,464.36,212.92z"/>
	<path d="M464.36,323.853h-25.6c-5.12,0-8.533-3.413-8.533-8.533c0-5.12,3.413-8.533,8.533-8.533h25.6
		c5.12,0,8.533,3.413,8.533,8.533C472.893,320.44,469.48,323.853,464.36,323.853z"/>
	<path d="M157.16,161.72c-1.707,0-2.56,0-3.413-0.853l-51.2-25.6c-2.56-0.853-4.267-3.413-4.267-5.973
		c-0.853-2.56,0-5.12,1.707-6.827l51.2-59.733c0.853-2.56,3.413-3.413,6.827-3.413c2.56,0,5.12,1.707,6.827,3.413l34.133,51.2
		c2.56,3.413,1.707,7.68-0.853,11.093l-34.133,34.133C161.427,160.867,159.72,161.72,157.16,161.72z M119.613,125.027l35.84,17.92
		L180.2,118.2l-23.893-35.84L119.613,125.027z"/>
	<path d="M344.893,161.72c-2.56,0-4.267-0.853-5.973-2.56l-34.133-34.133c-2.56-2.56-3.413-7.68-0.853-11.093l34.133-51.2
		c0.853-1.707,3.413-3.413,5.973-3.413c2.56,0,5.12,0.853,6.827,2.56l51.2,59.733c1.707,1.707,2.56,4.267,1.707,6.827
		c-0.853,2.56-2.56,5.12-4.267,5.973l-51.2,25.6C347.453,161.72,346.6,161.72,344.893,161.72z M321.853,118.2l24.747,24.747
		l35.84-17.92L345.747,82.36L321.853,118.2z"/>
	<path d="M344.893,451.853L344.893,451.853c-3.413,0-5.973-1.707-6.827-3.413l-34.133-51.2c-2.56-3.413-1.707-7.68,0.853-11.093
		l34.133-34.133c2.56-2.56,6.827-3.413,10.24-1.707l51.2,25.6c2.56,0.853,4.267,3.413,4.267,5.973c0.853,2.56,0,5.12-1.707,6.827
		l-51.2,59.733C350.013,451,347.453,451.853,344.893,451.853z M321.853,392.973l23.893,35.84l36.693-42.667l-35.84-17.92
		L321.853,392.973z"/>
	<path d="M157.16,451.853c-2.56,0-5.12-0.853-6.827-2.56l-51.2-59.733c-1.707-2.56-1.707-5.12-1.707-7.68
		c0.853-2.56,2.56-5.12,4.267-5.973l51.2-25.6c3.413-1.707,7.68-0.853,10.24,1.707l34.133,34.133c2.56,2.56,3.413,7.68,0.853,11.093
		l-34.133,51.2C163.133,450.147,160.573,451.853,157.16,451.853L157.16,451.853z M119.613,386.147l36.693,42.667l23.893-35.84
		l-24.747-24.747L119.613,386.147z"/>
	<path d="M251.027,340.92c-33.28,0-59.733-26.453-59.733-59.733c0-77.653,78.507-109.227,81.92-110.08
		c3.413-1.707,7.68,0,10.24,3.413c2.56,3.413,1.707,7.68-0.853,10.24c-5.12,5.973-17.92,23.893-15.36,38.4
		c0.853,6.827,5.12,11.947,12.8,17.067c0.853,0,29.867,14.507,29.867,41.813C310.76,314.467,284.307,340.92,251.027,340.92z
		 M253.587,201.827c-20.48,14.507-45.227,40.107-45.227,79.36c0,23.893,18.773,42.667,42.667,42.667s42.667-18.773,42.667-42.667
		c0-16.213-20.48-26.453-20.48-26.453c-12.8-7.68-19.627-17.067-22.187-29.013C249.32,217.187,251.027,208.653,253.587,201.827z"/>
</g>
</svg>